<svg width="32" height="32" viewBox="0 0 32 32" fill="none" xmlns="http://www.w3.org/2000/svg">
<path d="M21.5194 0.397697L16.9882 4.67503C16.4335 5.1977 15.5845 5.1977 15.0298 4.67503L10.5071 0.406231C9.54075 -0.504703 7.98981 0.267564 8.08368 1.61156L8.52314 7.8665C8.57861 8.6409 8.04314 9.32996 7.29648 9.4473L1.23141 10.4009C-0.069921 10.6057 -0.453923 12.3465 0.636211 13.1081L5.66874 16.6238C6.29808 17.0633 6.49008 17.9273 6.10821 18.6057L3.05968 24.0158C2.40048 25.187 3.47568 26.5844 4.73435 26.1897L10.6117 24.3444C11.3327 24.1182 12.1029 24.498 12.3802 25.2212L14.6309 31.0601C15.1151 32.3124 16.8367 32.3145 17.3231 31.0622L19.593 25.2062C19.8725 24.4873 20.6383 24.1076 21.3573 24.3316L27.2453 26.1662C28.5018 26.5588 29.577 25.1636 28.9199 23.9924L25.8799 18.5822C25.5002 17.906 25.6922 17.042 26.3194 16.6025L31.3647 13.0697C32.4549 12.306 32.0687 10.5652 30.7653 10.3625L24.7194 9.42596C23.9706 9.31076 23.433 8.61956 23.4906 7.8409L23.9429 1.60516C24.041 0.259031 22.4858 -0.517503 21.5194 0.395564V0.397697Z" fill="#F4F4F4"/>
</svg>
