<svg width="32" height="32" viewBox="0 0 32 32" fill="none" xmlns="http://www.w3.org/2000/svg">
<path d="M7.54141 31.0038C11.3878 33.5531 19.1979 31.7014 16.9451 19.6417C20.7937 31.1275 28.5291 29.1691 30.6881 24.9942C30.735 24.9025 30.9462 24.5441 31.0038 24.4587C33.5531 20.6123 31.7014 12.8022 19.6417 15.055C31.1275 11.2065 29.1691 3.471 24.9942 1.31207C24.9025 1.26514 24.5441 1.05394 24.4587 0.996337C20.6123 -1.553 12.8022 0.298735 15.055 12.3585C11.2065 0.872602 3.471 2.831 1.31207 7.00594C1.26514 7.09767 1.05394 7.45607 0.996335 7.5414C-1.553 11.3878 0.298743 19.1979 12.3585 16.9451C0.87261 20.7937 2.831 28.5291 7.00594 30.6881C7.09767 30.735 7.45607 30.9462 7.54141 31.0038ZM15.983 15.9894C15.9531 15.791 15.9382 15.7953 16.0086 15.983C16.207 15.9531 16.2027 15.9382 16.015 16.0086C16.0449 16.207 16.0598 16.2027 15.9894 16.015C15.791 16.0449 15.7953 16.0598 15.983 15.9894Z" fill="#F4F4F4"/>
</svg>
