<svg width="32" height="32" viewBox="0 0 32 32" fill="none" xmlns="http://www.w3.org/2000/svg">
<path d="M30.6901 14.272C29.44 14.272 22.4149 14.9397 18.5493 15.3173C22.0864 13.7109 28.5035 10.7776 29.5872 10.1525C30.8971 9.39732 29.8453 8.00639 29.8453 8.00639C29.8453 8.00639 29.1691 6.40212 27.8592 7.15732C26.7755 7.78239 21.0261 11.8741 17.8667 14.1333C20.1259 10.9739 24.2176 5.22452 24.8427 4.14079C25.5979 2.83092 23.9936 2.15466 23.9936 2.15466C23.9936 2.15466 22.6048 1.10292 21.8475 2.41279C21.2224 3.49652 18.2869 9.91359 16.6827 13.4507C17.0603 9.58506 17.728 2.55999 17.728 1.30986C17.728 -0.202676 16 0.0127909 16 0.0127909C16 0.0127909 14.272 -0.202676 14.272 1.30986C14.272 2.55999 14.9397 9.58506 15.3173 13.4507C13.7109 9.91359 10.7776 3.49652 10.1525 2.41279C9.39733 1.10292 8.0064 2.15466 8.0064 2.15466C8.0064 2.15466 6.40212 2.83092 7.15732 4.14079C7.78239 5.22452 11.8741 10.9739 14.1333 14.1333C10.9739 11.8741 5.22453 7.78239 4.1408 7.15732C2.83093 6.40212 2.15465 8.00639 2.15465 8.00639C2.15465 8.00639 1.10292 9.39519 2.41279 10.1525C3.49652 10.7776 9.91359 13.7131 13.4507 15.3173C9.58506 14.9397 2.55999 14.272 1.30986 14.272C-0.202673 14.272 0.0127905 16 0.0127905 16C0.0127905 16 -0.202673 17.728 1.30986 17.728C2.55999 17.728 9.58506 17.0603 13.4507 16.6827C9.91359 18.2891 3.49652 21.2224 2.41279 21.8475C1.10292 22.6027 2.15465 23.9936 2.15465 23.9936C2.15465 23.9936 2.83093 25.5979 4.1408 24.8427C5.22453 24.2176 10.9739 20.1259 14.1333 17.8667C11.8741 21.0261 7.78239 26.7755 7.15732 27.8592C6.40212 29.1691 8.0064 29.8453 8.0064 29.8453C8.0064 29.8453 9.3952 30.8971 10.1525 29.5872C10.7776 28.5035 13.7131 22.0864 15.3173 18.5493C14.9397 22.4149 14.272 29.44 14.272 30.6901C14.272 32.2027 16 31.9872 16 31.9872C16 31.9872 17.728 32.2027 17.728 30.6901C17.728 29.44 17.0603 22.4149 16.6827 18.5493C18.2891 22.0864 21.2224 28.5035 21.8475 29.5872C22.6048 30.8971 23.9936 29.8453 23.9936 29.8453C23.9936 29.8453 25.5979 29.1691 24.8427 27.8592C24.2176 26.7755 20.1259 21.0261 17.8667 17.8667C21.0261 20.1259 26.7755 24.2176 27.8592 24.8427C29.1691 25.5979 29.8453 23.9936 29.8453 23.9936C29.8453 23.9936 30.8971 22.6048 29.5872 21.8475C28.5035 21.2224 22.0864 18.2869 18.5493 16.6827C22.4149 17.0603 29.44 17.728 30.6901 17.728C32.2027 17.728 31.9872 16 31.9872 16C31.9872 16 32.2027 14.272 30.6901 14.272Z" fill="#F4F4F4"/>
</svg>
