<svg width="32" height="32" viewBox="0 0 32 32" fill="none" xmlns="http://www.w3.org/2000/svg">
<path d="M32.0021 15.9999C32.0021 17.1989 30.4383 18.1695 28.5119 18.1695C27.5946 18.1695 24.7103 17.9498 21.937 17.5893C24.5183 18.6645 27.1253 19.9167 27.921 20.3754C29.5914 21.3397 30.4575 22.961 29.8581 23.9999C29.2586 25.0367 27.4197 25.0986 25.7493 24.1343C24.9557 23.6757 22.5663 22.0437 20.3455 20.3455C22.0437 22.5663 23.6757 24.9557 24.1343 25.7493C25.0986 27.4197 25.0389 29.2586 23.9999 29.8581C22.9631 30.4575 21.3397 29.5893 20.3754 27.921C19.9167 27.1274 18.6645 24.5183 17.5893 21.937C17.9498 24.7103 18.1695 27.5946 18.1695 28.5119C18.1695 30.4405 17.1989 32.0021 15.9999 32.0021C14.801 32.0021 13.8303 30.4383 13.8303 28.5119C13.8303 27.5946 14.0501 24.7103 14.4106 21.937C13.3354 24.5183 12.0831 27.1253 11.6245 27.921C10.6602 29.5914 9.03887 30.4575 7.99994 29.8581C6.96314 29.2586 6.90127 27.4197 7.86554 25.7493C8.3242 24.9557 9.95619 22.5663 11.6543 20.3455C9.43353 22.0437 7.0442 23.6757 6.2506 24.1343C4.5802 25.0986 2.74127 25.0389 2.1418 23.9999C1.54233 22.9631 2.4106 21.3397 4.07887 20.3754C4.87247 19.9167 7.48153 18.6645 10.0629 17.5893C7.28953 17.9498 4.40527 18.1695 3.48793 18.1695C1.5594 18.1695 -0.00219727 17.1989 -0.00219727 15.9999C-0.00219727 14.801 1.56153 13.8303 3.48793 13.8303C4.40527 13.8303 7.28953 14.0501 10.0629 14.4106C7.48153 13.3354 4.8746 12.0831 4.07887 11.6245C2.40847 10.6602 1.54233 9.03887 2.1418 7.99994C2.74127 6.96314 4.5802 6.90127 6.2506 7.86554C7.0442 8.3242 9.43353 9.9562 11.6543 11.6543C9.95619 9.43353 8.3242 7.0442 7.86554 6.2506C6.90127 4.5802 6.961 2.74127 7.99994 2.1418C9.03674 1.54233 10.6602 2.4106 11.6245 4.07887C12.0831 4.87247 13.3354 7.48153 14.4106 10.0629C14.0501 7.28953 13.8303 4.40527 13.8303 3.48793C13.8303 1.5594 14.801 -0.00219727 15.9999 -0.00219727C17.1989 -0.00219727 18.1695 1.56153 18.1695 3.48793C18.1695 4.40527 17.9498 7.28953 17.5893 10.0629C18.6645 7.48153 19.9167 4.8746 20.3754 4.07887C21.3397 2.40847 22.961 1.54233 23.9999 2.1418C25.0367 2.74127 25.0986 4.5802 24.1343 6.2506C23.6757 7.0442 22.0437 9.43353 20.3455 11.6543C22.5663 9.9562 24.9557 8.3242 25.7493 7.86554C27.4197 6.90127 29.2586 6.96101 29.8581 7.99994C30.4575 9.03674 29.5893 10.6602 27.921 11.6245C27.1274 12.0831 24.5183 13.3354 21.937 14.4106C24.7103 14.0501 27.5946 13.8303 28.5119 13.8303C30.4405 13.8303 32.0021 14.801 32.0021 15.9999Z" fill="#F4F4F4"/>
</svg>
