<svg width="32" height="32" viewBox="0 0 32 32" fill="none" xmlns="http://www.w3.org/2000/svg">
<path d="M10.4807 0.3977L15.0118 4.67503C15.5665 5.1977 16.4156 5.1977 16.9703 4.67503L21.4929 0.406229C22.4593 -0.504705 24.0103 0.267567 23.9164 1.61157L23.4769 7.86649C23.4215 8.64089 23.9569 9.32996 24.7036 9.4473L30.7687 10.4009C32.07 10.6057 32.454 12.3465 31.3639 13.1081L26.3313 16.6238C25.702 17.0633 25.51 17.9273 25.8918 18.6057L28.9404 24.0158C29.5996 25.187 28.5244 26.5844 27.2657 26.1897L21.3884 24.3444C20.6673 24.1182 19.8972 24.498 19.6199 25.2212L17.3692 31.0601C16.8849 32.3124 15.1633 32.3145 14.6769 31.0622L12.4071 25.2062C12.1276 24.4873 11.3617 24.1076 10.6428 24.3316L4.75479 26.1662C3.49826 26.5587 2.42305 25.1636 3.08012 23.9924L6.12012 18.5822C6.49985 17.906 6.30785 17.042 5.68065 16.6025L0.635325 13.0697C-0.454808 12.306 -0.0686753 10.5652 1.23479 10.3625L7.28065 9.42596C8.02945 9.31076 8.56705 8.61956 8.50945 7.84089L8.05719 1.60516C7.95905 0.259028 9.51425 -0.517502 10.4807 0.395565V0.3977Z" fill="#F4F4F4"/>
</svg>
