<svg width="21" height="20" viewBox="0 0 21 20" fill="none" xmlns="http://www.w3.org/2000/svg">
<path d="M20.0003 10C20.0003 10.0948 19.9734 10.1875 19.9227 10.2675C19.872 10.3476 19.7996 10.4115 19.714 10.452L1.71402 18.952C1.62412 18.9956 1.52318 19.0112 1.42434 18.9966C1.32549 18.9821 1.2333 18.9381 1.15974 18.8705C1.08619 18.8029 1.03468 18.7147 1.0119 18.6174C0.989126 18.5202 0.996137 18.4183 1.03202 18.325L3.87402 10.698C4.0417 10.2478 4.0417 9.75227 3.87402 9.30204L1.03102 1.67504C0.994955 1.58168 0.987852 1.47962 1.01064 1.38216C1.03343 1.28471 1.08505 1.19638 1.15878 1.1287C1.23251 1.06102 1.32492 1.01712 1.42396 1.00273C1.523 0.988344 1.62409 1.00413 1.71402 1.04804L19.714 9.54804C19.7996 9.58853 19.872 9.65251 19.9227 9.73253C19.9734 9.81255 20.0003 9.90532 20.0003 10ZM20.0003 10L4 10" stroke="#FAFAFA" stroke-width="2" stroke-linecap="round" stroke-linejoin="round"/>
</svg>
