<svg width="36" height="36" viewBox="0 0 36 36" fill="none" xmlns="http://www.w3.org/2000/svg">
<path fill-rule="evenodd" clip-rule="evenodd" d="M30.9515 5.32059C24.0059 -1.70901 12.2411 -1.78101 5.21868 5.15259C-1.83732 12.2062 -1.68612 23.9086 5.38428 30.8782C12.4451 37.7614 23.7923 37.7062 30.7859 30.7126C37.6427 23.7838 37.7867 12.331 30.9515 5.32059ZM26.0627 21.7822C24.7091 24.9142 21.5459 26.9206 18.0227 26.9206C14.4995 26.9206 11.1635 24.9526 9.90588 21.6814C9.64428 20.9518 9.99948 20.1382 10.7243 19.8382C10.9019 19.771 11.0867 19.7374 11.2715 19.7374C11.8475 19.7374 12.4043 20.0614 12.6395 20.6302C13.5515 22.759 15.7451 23.9902 18.0227 23.9902C20.3003 23.9902 22.4267 22.6726 23.4059 20.551C23.7491 19.8574 24.5795 19.5454 25.2995 19.8574C26.0411 20.179 26.3843 21.0406 26.0627 21.7822ZM16.0187 13.1686C16.0187 14.5654 14.8883 15.6958 13.4915 15.6958C12.0947 15.6958 10.9643 14.5654 10.9643 13.1686C10.9643 11.7718 12.0971 10.6414 13.4915 10.6414C14.8859 10.6414 16.0187 11.7742 16.0187 13.1686ZM20.2979 13.1686C20.2979 11.7742 21.4307 10.6414 22.8251 10.6414C24.2195 10.6414 25.3523 11.7742 25.3523 13.1686C25.3523 14.563 24.2219 15.6958 22.8251 15.6958C21.4283 15.6958 20.2979 14.5654 20.2979 13.1686Z" fill="#F7F7F7"/>
</svg>
