<svg width="36" height="36" viewBox="0 0 36 36" fill="none" xmlns="http://www.w3.org/2000/svg">
<path fill-rule="evenodd" clip-rule="evenodd" d="M30.9481 5.32059C24.0025 -1.70901 12.2377 -1.78101 5.21527 5.15259C-1.84073 12.2062 -1.68953 23.9086 5.38087 30.8782C12.4417 37.7614 23.7889 37.7062 30.7825 30.7126C37.6393 23.7838 37.7833 12.331 30.9481 5.32059ZM26.0593 21.7822C24.7057 24.9142 21.5425 26.9206 18.0193 26.9206C14.4961 26.9206 11.1601 24.9526 9.90246 21.6814C9.64087 20.9518 9.99607 20.1382 10.7209 19.8382C10.8985 19.771 11.0833 19.7374 11.2681 19.7374C11.8441 19.7374 12.4009 20.0614 12.6361 20.6302C13.5481 22.759 15.7417 23.9902 18.0193 23.9902C20.2969 23.9902 22.4233 22.6726 23.4025 20.551C23.7457 19.8574 24.5761 19.5454 25.2961 19.8574C26.0377 20.179 26.3809 21.0406 26.0593 21.7822ZM16.0153 13.1686C16.0153 14.5654 14.8849 15.6958 13.4881 15.6958C12.0913 15.6958 10.9609 14.5654 10.9609 13.1686C10.9609 11.7718 12.0937 10.6414 13.4881 10.6414C14.8825 10.6414 16.0153 11.7742 16.0153 13.1686ZM20.2945 13.1686C20.2945 11.7742 21.4273 10.6414 22.8217 10.6414C24.2161 10.6414 25.3489 11.7742 25.3489 13.1686C25.3489 14.563 24.2185 15.6958 22.8217 15.6958C21.4249 15.6958 20.2945 14.5654 20.2945 13.1686Z" fill="#FCF261"/>
</svg>
