<svg width="20" height="22" viewBox="0 0 20 22" fill="none" xmlns="http://www.w3.org/2000/svg">
<path d="M11.2339 19.2518L18.9999 11.2998M14 4.99963L5.58602 13.5856C5.21108 13.9607 5.00045 14.4693 5.00045 14.9996C5.00045 15.53 5.21108 16.0386 5.58602 16.4136C5.96107 16.7886 6.46969 16.9992 7.00002 16.9992C7.53035 16.9992 8.03896 16.7886 8.41402 16.4136L16.828 7.82763C17.5779 7.07752 17.9992 6.06029 17.9992 4.99963C17.9992 3.93898 17.5779 2.92174 16.828 2.17163C16.0779 1.42175 15.0607 1.00049 14 1.00049C12.9394 1.00049 11.9221 1.42175 11.172 2.17163L2.75702 10.7566C1.63171 11.8819 0.999512 13.4082 0.999512 14.9996C0.999512 16.5911 1.63171 18.1173 2.75702 19.2426C3.88233 20.3679 5.40859 21.0001 7.00002 21.0001C8.59145 21.0001 10.1177 20.3679 11.243 19.2426" stroke="#FAFAFA" stroke-width="2" stroke-linecap="round" stroke-linejoin="round"/>
</svg>
